<mxfile host="app.diagrams.net" modified="2024-06-06T06:08:10.729Z" agent="Mozilla/5.0 (Windows NT 10.0; Win64; x64) AppleWebKit/537.36 (KHTML, like Gecko) Chrome/125.0.0.0 Safari/537.36" etag="62yIeHu_zFw6UHySI7Ou" version="24.4.9" type="github">
  <diagram name="Page-1" id="FfpY2cn92wiTq-p8_53X">
    <mxGraphModel dx="1018" dy="611" grid="1" gridSize="10" guides="1" tooltips="1" connect="1" arrows="1" fold="1" page="1" pageScale="1" pageWidth="827" pageHeight="1169" math="0" shadow="0">
      <root>
        <mxCell id="0" />
        <mxCell id="1" parent="0" />
        <mxCell id="-TwK61ZkTctfuT8_DmLG-1" value="" style="rounded=0;whiteSpace=wrap;html=1;fillColor=#66FFFF;" vertex="1" parent="1">
          <mxGeometry x="80" y="70" width="400" height="420" as="geometry" />
        </mxCell>
        <mxCell id="-TwK61ZkTctfuT8_DmLG-2" value="SPI Modem&lt;br&gt;&lt;br&gt;(SPI Master)&lt;br&gt;&lt;br&gt;&lt;br&gt;Vender: LG&lt;div&gt;Model: LCWB-002&lt;/div&gt;" style="rounded=0;whiteSpace=wrap;html=1;fillColor=#FFCCFF;" vertex="1" parent="1">
          <mxGeometry x="590" y="157.5" width="210" height="160" as="geometry" />
        </mxCell>
        <mxCell id="-TwK61ZkTctfuT8_DmLG-12" value="" style="edgeStyle=orthogonalEdgeStyle;rounded=0;orthogonalLoop=1;jettySize=auto;html=1;" edge="1" parent="1" source="-TwK61ZkTctfuT8_DmLG-3" target="-TwK61ZkTctfuT8_DmLG-4">
          <mxGeometry relative="1" as="geometry" />
        </mxCell>
        <mxCell id="-TwK61ZkTctfuT8_DmLG-3" value="SPI Slave" style="rounded=0;whiteSpace=wrap;html=1;" vertex="1" parent="1">
          <mxGeometry x="350" y="195" width="100" height="85" as="geometry" />
        </mxCell>
        <mxCell id="-TwK61ZkTctfuT8_DmLG-4" value="SPI Buffer" style="rounded=0;whiteSpace=wrap;html=1;" vertex="1" parent="1">
          <mxGeometry x="350" y="335" width="100" height="50" as="geometry" />
        </mxCell>
        <mxCell id="-TwK61ZkTctfuT8_DmLG-22" value="" style="edgeStyle=orthogonalEdgeStyle;rounded=0;orthogonalLoop=1;jettySize=auto;html=1;" edge="1" parent="1" source="-TwK61ZkTctfuT8_DmLG-5" target="-TwK61ZkTctfuT8_DmLG-9">
          <mxGeometry relative="1" as="geometry" />
        </mxCell>
        <mxCell id="-TwK61ZkTctfuT8_DmLG-5" value="RX_Buffer" style="rounded=0;whiteSpace=wrap;html=1;" vertex="1" parent="1">
          <mxGeometry x="145" y="350" width="90" height="55" as="geometry" />
        </mxCell>
        <mxCell id="-TwK61ZkTctfuT8_DmLG-6" value="DMA" style="rounded=0;whiteSpace=wrap;html=1;" vertex="1" parent="1">
          <mxGeometry x="250" y="420" width="110" height="50" as="geometry" />
        </mxCell>
        <mxCell id="-TwK61ZkTctfuT8_DmLG-7" value="Modem Service" style="rounded=0;whiteSpace=wrap;html=1;" vertex="1" parent="1">
          <mxGeometry x="130" y="100" width="120" height="60" as="geometry" />
        </mxCell>
        <mxCell id="-TwK61ZkTctfuT8_DmLG-19" value="" style="edgeStyle=orthogonalEdgeStyle;rounded=0;orthogonalLoop=1;jettySize=auto;html=1;" edge="1" parent="1" source="-TwK61ZkTctfuT8_DmLG-8" target="-TwK61ZkTctfuT8_DmLG-7">
          <mxGeometry relative="1" as="geometry" />
        </mxCell>
        <mxCell id="-TwK61ZkTctfuT8_DmLG-8" value="Virtual File System" style="rounded=0;whiteSpace=wrap;html=1;" vertex="1" parent="1">
          <mxGeometry x="130" y="185" width="120" height="60" as="geometry" />
        </mxCell>
        <mxCell id="-TwK61ZkTctfuT8_DmLG-18" value="" style="edgeStyle=orthogonalEdgeStyle;rounded=0;orthogonalLoop=1;jettySize=auto;html=1;" edge="1" parent="1" source="-TwK61ZkTctfuT8_DmLG-9" target="-TwK61ZkTctfuT8_DmLG-8">
          <mxGeometry relative="1" as="geometry" />
        </mxCell>
        <mxCell id="-TwK61ZkTctfuT8_DmLG-9" value="&lt;b&gt;Modem Driver&lt;/b&gt;: Data Parsing based on Frame Format i.e 0xAA~0xBB" style="rounded=0;whiteSpace=wrap;html=1;fillColor=#FFFF00;" vertex="1" parent="1">
          <mxGeometry x="115" y="267.5" width="150" height="50" as="geometry" />
        </mxCell>
        <mxCell id="-TwK61ZkTctfuT8_DmLG-10" style="edgeStyle=orthogonalEdgeStyle;rounded=0;orthogonalLoop=1;jettySize=auto;html=1;exitX=0.5;exitY=1;exitDx=0;exitDy=0;" edge="1" parent="1" source="-TwK61ZkTctfuT8_DmLG-5" target="-TwK61ZkTctfuT8_DmLG-5">
          <mxGeometry relative="1" as="geometry" />
        </mxCell>
        <mxCell id="-TwK61ZkTctfuT8_DmLG-13" value="" style="endArrow=classic;html=1;rounded=0;" edge="1" parent="1">
          <mxGeometry width="50" height="50" relative="1" as="geometry">
            <mxPoint x="400" y="390" as="sourcePoint" />
            <mxPoint x="400" y="450" as="targetPoint" />
          </mxGeometry>
        </mxCell>
        <mxCell id="-TwK61ZkTctfuT8_DmLG-15" value="" style="endArrow=classic;html=1;rounded=0;entryX=1;entryY=0.5;entryDx=0;entryDy=0;" edge="1" parent="1" target="-TwK61ZkTctfuT8_DmLG-6">
          <mxGeometry width="50" height="50" relative="1" as="geometry">
            <mxPoint x="400" y="445" as="sourcePoint" />
            <mxPoint x="440" y="350" as="targetPoint" />
          </mxGeometry>
        </mxCell>
        <mxCell id="-TwK61ZkTctfuT8_DmLG-16" value="" style="endArrow=classic;html=1;rounded=0;exitX=0;exitY=0.5;exitDx=0;exitDy=0;" edge="1" parent="1" source="-TwK61ZkTctfuT8_DmLG-6">
          <mxGeometry width="50" height="50" relative="1" as="geometry">
            <mxPoint x="390" y="400" as="sourcePoint" />
            <mxPoint x="190" y="445" as="targetPoint" />
          </mxGeometry>
        </mxCell>
        <mxCell id="-TwK61ZkTctfuT8_DmLG-17" value="" style="endArrow=classic;html=1;rounded=0;entryX=0.5;entryY=1;entryDx=0;entryDy=0;" edge="1" parent="1" target="-TwK61ZkTctfuT8_DmLG-5">
          <mxGeometry width="50" height="50" relative="1" as="geometry">
            <mxPoint x="190" y="450" as="sourcePoint" />
            <mxPoint x="440" y="350" as="targetPoint" />
            <Array as="points" />
          </mxGeometry>
        </mxCell>
        <mxCell id="-TwK61ZkTctfuT8_DmLG-24" value="" style="endArrow=classic;startArrow=classic;html=1;rounded=0;exitX=0.987;exitY=0.42;exitDx=0;exitDy=0;exitPerimeter=0;entryX=-0.006;entryY=0.464;entryDx=0;entryDy=0;entryPerimeter=0;" edge="1" parent="1" source="-TwK61ZkTctfuT8_DmLG-3" target="-TwK61ZkTctfuT8_DmLG-2">
          <mxGeometry width="50" height="50" relative="1" as="geometry">
            <mxPoint x="470" y="380" as="sourcePoint" />
            <mxPoint x="520" y="330" as="targetPoint" />
          </mxGeometry>
        </mxCell>
        <mxCell id="-TwK61ZkTctfuT8_DmLG-25" value="SPI Channels" style="text;html=1;align=center;verticalAlign=middle;resizable=0;points=[];autosize=1;strokeColor=none;fillColor=none;" vertex="1" parent="1">
          <mxGeometry x="480" y="195" width="100" height="30" as="geometry" />
        </mxCell>
        <mxCell id="-TwK61ZkTctfuT8_DmLG-26" value="MISO&lt;br&gt;MOSI&lt;br&gt;CLK&lt;br&gt;CS/EXT-IT&lt;br&gt;TX_RX_STATUS&lt;br&gt;&lt;div&gt;&lt;br&gt;&lt;/div&gt;" style="text;html=1;align=center;verticalAlign=middle;whiteSpace=wrap;rounded=0;" vertex="1" parent="1">
          <mxGeometry x="500" y="267.5" width="60" height="30" as="geometry" />
        </mxCell>
        <mxCell id="-TwK61ZkTctfuT8_DmLG-28" value="" style="rounded=0;whiteSpace=wrap;html=1;fillColor=#66FFFF;" vertex="1" parent="1">
          <mxGeometry x="80" y="620" width="400" height="420" as="geometry" />
        </mxCell>
        <mxCell id="-TwK61ZkTctfuT8_DmLG-29" value="SPI Modem&lt;br&gt;&lt;br&gt;(SPI Master)&lt;br&gt;&lt;br&gt;&lt;br&gt;Vender: LG&lt;div&gt;Model: LCWB-002&lt;/div&gt;" style="rounded=0;whiteSpace=wrap;html=1;fillColor=#FFCCFF;" vertex="1" parent="1">
          <mxGeometry x="590" y="725" width="210" height="160" as="geometry" />
        </mxCell>
        <mxCell id="-TwK61ZkTctfuT8_DmLG-30" value="" style="edgeStyle=orthogonalEdgeStyle;rounded=0;orthogonalLoop=1;jettySize=auto;html=1;" edge="1" parent="1" source="-TwK61ZkTctfuT8_DmLG-31" target="-TwK61ZkTctfuT8_DmLG-32">
          <mxGeometry relative="1" as="geometry" />
        </mxCell>
        <mxCell id="-TwK61ZkTctfuT8_DmLG-31" value="SPI Slave" style="rounded=0;whiteSpace=wrap;html=1;" vertex="1" parent="1">
          <mxGeometry x="350" y="762.5" width="100" height="85" as="geometry" />
        </mxCell>
        <mxCell id="-TwK61ZkTctfuT8_DmLG-32" value="SPI Buffer" style="rounded=0;whiteSpace=wrap;html=1;" vertex="1" parent="1">
          <mxGeometry x="350" y="885" width="100" height="50" as="geometry" />
        </mxCell>
        <mxCell id="-TwK61ZkTctfuT8_DmLG-55" value="" style="edgeStyle=orthogonalEdgeStyle;rounded=0;orthogonalLoop=1;jettySize=auto;html=1;" edge="1" parent="1" source="-TwK61ZkTctfuT8_DmLG-34" target="-TwK61ZkTctfuT8_DmLG-38">
          <mxGeometry relative="1" as="geometry" />
        </mxCell>
        <mxCell id="-TwK61ZkTctfuT8_DmLG-34" value="RX_Buffer" style="rounded=0;whiteSpace=wrap;html=1;" vertex="1" parent="1">
          <mxGeometry x="145" y="885" width="90" height="55" as="geometry" />
        </mxCell>
        <mxCell id="-TwK61ZkTctfuT8_DmLG-35" value="DMA" style="rounded=0;whiteSpace=wrap;html=1;fillColor=#33FF33;" vertex="1" parent="1">
          <mxGeometry x="232.5" y="970" width="110" height="50" as="geometry" />
        </mxCell>
        <mxCell id="-TwK61ZkTctfuT8_DmLG-36" value="Modem Service" style="rounded=0;whiteSpace=wrap;html=1;" vertex="1" parent="1">
          <mxGeometry x="130" y="650" width="120" height="60" as="geometry" />
        </mxCell>
        <mxCell id="-TwK61ZkTctfuT8_DmLG-37" value="" style="edgeStyle=orthogonalEdgeStyle;rounded=0;orthogonalLoop=1;jettySize=auto;html=1;" edge="1" parent="1" source="-TwK61ZkTctfuT8_DmLG-38" target="-TwK61ZkTctfuT8_DmLG-36">
          <mxGeometry relative="1" as="geometry" />
        </mxCell>
        <mxCell id="-TwK61ZkTctfuT8_DmLG-38" value="Virtual File System" style="rounded=0;whiteSpace=wrap;html=1;" vertex="1" parent="1">
          <mxGeometry x="130" y="730" width="120" height="60" as="geometry" />
        </mxCell>
        <mxCell id="-TwK61ZkTctfuT8_DmLG-56" value="" style="edgeStyle=orthogonalEdgeStyle;rounded=0;orthogonalLoop=1;jettySize=auto;html=1;" edge="1" parent="1" source="-TwK61ZkTctfuT8_DmLG-40" target="-TwK61ZkTctfuT8_DmLG-31">
          <mxGeometry relative="1" as="geometry" />
        </mxCell>
        <mxCell id="-TwK61ZkTctfuT8_DmLG-40" value="&lt;b&gt;Modem Driver&lt;/b&gt;: Data Receiving based on CS/EXT-IT and TX_RX_STATUS, and &lt;b&gt;Independent of&amp;nbsp; Frame Format&lt;/b&gt;" style="rounded=0;whiteSpace=wrap;html=1;fillColor=#80FF00;" vertex="1" parent="1">
          <mxGeometry x="325" y="650" width="150" height="90" as="geometry" />
        </mxCell>
        <mxCell id="-TwK61ZkTctfuT8_DmLG-41" style="edgeStyle=orthogonalEdgeStyle;rounded=0;orthogonalLoop=1;jettySize=auto;html=1;exitX=0.5;exitY=1;exitDx=0;exitDy=0;" edge="1" parent="1" source="-TwK61ZkTctfuT8_DmLG-34" target="-TwK61ZkTctfuT8_DmLG-34">
          <mxGeometry relative="1" as="geometry" />
        </mxCell>
        <mxCell id="-TwK61ZkTctfuT8_DmLG-42" value="" style="endArrow=classic;html=1;rounded=0;" edge="1" parent="1">
          <mxGeometry width="50" height="50" relative="1" as="geometry">
            <mxPoint x="400" y="940" as="sourcePoint" />
            <mxPoint x="400" y="1000" as="targetPoint" />
          </mxGeometry>
        </mxCell>
        <mxCell id="-TwK61ZkTctfuT8_DmLG-43" value="" style="endArrow=classic;html=1;rounded=0;entryX=1;entryY=0.5;entryDx=0;entryDy=0;" edge="1" parent="1" target="-TwK61ZkTctfuT8_DmLG-35">
          <mxGeometry width="50" height="50" relative="1" as="geometry">
            <mxPoint x="400" y="995" as="sourcePoint" />
            <mxPoint x="440" y="900" as="targetPoint" />
          </mxGeometry>
        </mxCell>
        <mxCell id="-TwK61ZkTctfuT8_DmLG-44" value="" style="endArrow=classic;html=1;rounded=0;exitX=0;exitY=0.5;exitDx=0;exitDy=0;" edge="1" parent="1" source="-TwK61ZkTctfuT8_DmLG-35">
          <mxGeometry width="50" height="50" relative="1" as="geometry">
            <mxPoint x="390" y="950" as="sourcePoint" />
            <mxPoint x="190" y="995" as="targetPoint" />
          </mxGeometry>
        </mxCell>
        <mxCell id="-TwK61ZkTctfuT8_DmLG-45" value="" style="endArrow=classic;html=1;rounded=0;entryX=0.5;entryY=1;entryDx=0;entryDy=0;" edge="1" parent="1" target="-TwK61ZkTctfuT8_DmLG-34">
          <mxGeometry width="50" height="50" relative="1" as="geometry">
            <mxPoint x="190" y="1000" as="sourcePoint" />
            <mxPoint x="440" y="900" as="targetPoint" />
            <Array as="points" />
          </mxGeometry>
        </mxCell>
        <mxCell id="-TwK61ZkTctfuT8_DmLG-46" value="" style="endArrow=classic;startArrow=classic;html=1;rounded=0;exitX=0.987;exitY=0.42;exitDx=0;exitDy=0;exitPerimeter=0;entryX=-0.006;entryY=0.464;entryDx=0;entryDy=0;entryPerimeter=0;" edge="1" parent="1" source="-TwK61ZkTctfuT8_DmLG-31" target="-TwK61ZkTctfuT8_DmLG-29">
          <mxGeometry width="50" height="50" relative="1" as="geometry">
            <mxPoint x="470" y="930" as="sourcePoint" />
            <mxPoint x="520" y="880" as="targetPoint" />
          </mxGeometry>
        </mxCell>
        <mxCell id="-TwK61ZkTctfuT8_DmLG-47" value="SPI Channels" style="text;html=1;align=center;verticalAlign=middle;resizable=0;points=[];autosize=1;strokeColor=none;fillColor=none;" vertex="1" parent="1">
          <mxGeometry x="480" y="770" width="100" height="30" as="geometry" />
        </mxCell>
        <mxCell id="-TwK61ZkTctfuT8_DmLG-48" value="MISO&lt;br&gt;MOSI&lt;br&gt;CLK&lt;br&gt;CS/EXT-IT&lt;br&gt;TX_RX_STATUS&lt;div&gt;&lt;br&gt;&lt;/div&gt;" style="text;html=1;align=center;verticalAlign=middle;whiteSpace=wrap;rounded=0;" vertex="1" parent="1">
          <mxGeometry x="500" y="840" width="60" height="30" as="geometry" />
        </mxCell>
        <mxCell id="-TwK61ZkTctfuT8_DmLG-49" value="" style="endArrow=none;html=1;rounded=0;" edge="1" parent="1">
          <mxGeometry width="50" height="50" relative="1" as="geometry">
            <mxPoint x="60" y="560" as="sourcePoint" />
            <mxPoint x="810" y="560" as="targetPoint" />
          </mxGeometry>
        </mxCell>
        <mxCell id="-TwK61ZkTctfuT8_DmLG-51" value="DQC MCU" style="text;html=1;align=center;verticalAlign=middle;whiteSpace=wrap;rounded=0;" vertex="1" parent="1">
          <mxGeometry x="370" y="80" width="60" height="30" as="geometry" />
        </mxCell>
        <mxCell id="-TwK61ZkTctfuT8_DmLG-52" value="DQC MCU" style="text;html=1;align=center;verticalAlign=middle;whiteSpace=wrap;rounded=0;" vertex="1" parent="1">
          <mxGeometry x="370" y="620" width="60" height="30" as="geometry" />
        </mxCell>
        <mxCell id="-TwK61ZkTctfuT8_DmLG-58" value="" style="edgeStyle=orthogonalEdgeStyle;rounded=0;orthogonalLoop=1;jettySize=auto;html=1;" edge="1" parent="1" source="-TwK61ZkTctfuT8_DmLG-57" target="-TwK61ZkTctfuT8_DmLG-3">
          <mxGeometry relative="1" as="geometry" />
        </mxCell>
        <mxCell id="-TwK61ZkTctfuT8_DmLG-57" value="&lt;b&gt;Modem Driver&lt;/b&gt;: Data Receiving based on Frame Format i.e 0xAA~0xBB" style="rounded=0;whiteSpace=wrap;html=1;fillColor=#FFFF00;" vertex="1" parent="1">
          <mxGeometry x="325" y="120" width="150" height="50" as="geometry" />
        </mxCell>
        <mxCell id="-TwK61ZkTctfuT8_DmLG-61" value="" style="edgeStyle=orthogonalEdgeStyle;rounded=0;orthogonalLoop=1;jettySize=auto;html=1;" edge="1" parent="1" source="-TwK61ZkTctfuT8_DmLG-59" target="-TwK61ZkTctfuT8_DmLG-35">
          <mxGeometry relative="1" as="geometry" />
        </mxCell>
        <mxCell id="-TwK61ZkTctfuT8_DmLG-59" value="&lt;b&gt;DMA Control&lt;/b&gt;: Data processing based on DMA TransferSize" style="rounded=0;whiteSpace=wrap;html=1;fillColor=#33FF33;" vertex="1" parent="1">
          <mxGeometry x="235" y="810" width="105" height="70" as="geometry" />
        </mxCell>
        <mxCell id="-TwK61ZkTctfuT8_DmLG-60" value="" style="endArrow=classic;html=1;rounded=0;exitX=0;exitY=0.5;exitDx=0;exitDy=0;entryX=0.448;entryY=0.027;entryDx=0;entryDy=0;entryPerimeter=0;" edge="1" parent="1" source="-TwK61ZkTctfuT8_DmLG-40" target="-TwK61ZkTctfuT8_DmLG-59">
          <mxGeometry width="50" height="50" relative="1" as="geometry">
            <mxPoint x="390" y="790" as="sourcePoint" />
            <mxPoint x="440" y="740" as="targetPoint" />
            <Array as="points">
              <mxPoint x="282" y="695" />
            </Array>
          </mxGeometry>
        </mxCell>
      </root>
    </mxGraphModel>
  </diagram>
</mxfile>
